<svg width="135" height="21" viewBox="0 0 135 21" fill="none" xmlns="http://www.w3.org/2000/svg">
<path d="M28.9741 14.3509H24.6152V6.31963H28.8416C29.5721 6.31963 30.138 6.52031 30.5394 6.92168C30.9488 7.31501 31.1535 7.79665 31.1535 8.36659C31.1535 8.85626 31.021 9.26565 30.7561 9.59477C30.4912 9.92389 30.1621 10.1286 29.7688 10.2089C30.2022 10.2731 30.5675 10.4938 30.8645 10.8711C31.1615 11.2484 31.31 11.6859 31.31 12.1836C31.31 12.8097 31.1053 13.3275 30.6959 13.7369C30.2865 14.1463 29.7126 14.3509 28.9741 14.3509ZM28.4683 9.53456C28.7573 9.53456 28.9861 9.45429 29.1547 9.29375C29.3233 9.1332 29.4075 8.92449 29.4075 8.66762C29.4075 8.41074 29.3192 8.20203 29.1426 8.04149C28.9741 7.87291 28.7493 7.78863 28.4683 7.78863H26.3251V9.53456H28.4683ZM28.5285 12.8699C28.8496 12.8699 29.1025 12.7896 29.2871 12.6291C29.4718 12.4605 29.5641 12.2317 29.5641 11.9428C29.5641 11.6779 29.4718 11.4571 29.2871 11.2805C29.1025 11.0959 28.8496 11.0036 28.5285 11.0036H26.3251V12.8699H28.5285Z" fill="#636872"/>
<path d="M41.293 14.3509H39.3424L38.8487 12.9903H35.405L34.8992 14.3509H32.9486L36.0552 6.31963H38.1985L41.293 14.3509ZM38.3791 11.4852L37.1268 8.02944L35.8746 11.4852H38.3791Z" fill="#636872"/>
<path d="M50.4272 14.3509H48.7776L44.9486 9.11313V14.3509H43.2387V6.31963H44.9967L48.7174 11.3648V6.31963H50.4272V14.3509Z" fill="#636872"/>
<path d="M60.0903 14.3509H57.9831L55.5508 11.136L54.9247 11.8826V14.3509H53.2149V6.31963H54.9247V9.90783L57.7663 6.31963H59.8735L56.6827 10.0884L60.0903 14.3509Z" fill="#636872"/>
<path d="M69.935 14.3509H68.2131V7.82475H65.8651V6.31963H72.2709V7.82475H69.935V14.3509Z" fill="#636872"/>
<path d="M81.0732 14.3509H79.1106L77.5332 11.4972H76.2809V14.3509H74.5711V6.31963H78.3279C79.1547 6.31963 79.8089 6.56045 80.2906 7.04209C80.7802 7.52372 81.0251 8.14584 81.0251 8.90843C81.0251 9.56667 80.8525 10.1005 80.5073 10.5099C80.1702 10.9193 79.7568 11.1802 79.2671 11.2925L81.0732 14.3509ZM78.075 9.99212C78.4282 9.99212 78.7172 9.89579 78.942 9.70314C79.1667 9.50246 79.2791 9.23755 79.2791 8.90843C79.2791 8.57932 79.1667 8.31843 78.942 8.12577C78.7172 7.92509 78.4282 7.82475 78.075 7.82475H76.2809V9.99212H78.075Z" fill="#636872"/>
<path d="M91.0019 14.3509H89.0513L88.5576 12.9903H85.1139L84.6082 14.3509H82.6576L85.7641 6.31963H87.9074L91.0019 14.3509ZM88.088 11.4852L86.8358 8.02944L85.5835 11.4852H88.088Z" fill="#636872"/>
<path d="M100.136 14.3509H98.4865L94.6575 9.11313V14.3509H92.9477V6.31963H94.7057L98.4263 11.3648V6.31963H100.136V14.3509Z" fill="#636872"/>
<path d="M105.778 14.4954C104.349 14.4954 103.217 14.07 102.382 13.2191L103.309 11.9187C103.999 12.6411 104.85 13.0024 105.862 13.0024C106.303 13.0024 106.644 12.9181 106.885 12.7495C107.134 12.5729 107.259 12.3602 107.259 12.1113C107.259 11.8946 107.142 11.714 106.909 11.5695C106.685 11.425 106.4 11.3206 106.054 11.2564C105.717 11.1922 105.348 11.0999 104.947 10.9795C104.545 10.8591 104.172 10.7226 103.827 10.5701C103.49 10.4176 103.205 10.1767 102.972 9.84763C102.747 9.51851 102.635 9.11714 102.635 8.64353C102.635 7.95319 102.912 7.37522 103.466 6.90964C104.02 6.43602 104.758 6.19922 105.681 6.19922C106.958 6.19922 108.001 6.57249 108.812 7.31903L107.861 8.57129C107.226 7.98529 106.448 7.6923 105.525 7.6923C105.163 7.6923 104.882 7.76454 104.682 7.90904C104.481 8.05353 104.381 8.2502 104.381 8.49904C104.381 8.6917 104.493 8.85626 104.718 8.99272C104.951 9.12116 105.236 9.21749 105.573 9.2817C105.918 9.34592 106.287 9.44225 106.681 9.57069C107.082 9.6911 107.451 9.83157 107.788 9.99212C108.134 10.1446 108.419 10.3895 108.643 10.7266C108.876 11.0557 108.992 11.4531 108.992 11.9187C108.992 12.6893 108.716 13.3114 108.162 13.785C107.616 14.2586 106.821 14.4954 105.778 14.4954Z" fill="#636872"/>
<path d="M113.058 14.3509H111.348V6.31963H117.031V7.82475H113.058V9.52252H116.947V11.0276H113.058V14.3509Z" fill="#636872"/>
<path d="M125.114 14.3509H119.431V6.31963H125.114V7.82475H121.141V9.52252H125.03V11.0276H121.141V12.8458H125.114V14.3509Z" fill="#636872"/>
<path d="M134.157 14.3509H132.194L130.617 11.4972H129.365V14.3509H127.655V6.31963H131.412C132.238 6.31963 132.893 6.56045 133.374 7.04209C133.864 7.52372 134.109 8.14584 134.109 8.90843C134.109 9.56667 133.936 10.1005 133.591 10.5099C133.254 10.9193 132.84 11.1802 132.351 11.2925L134.157 14.3509ZM131.159 9.99212C131.512 9.99212 131.801 9.89579 132.026 9.70314C132.25 9.50246 132.363 9.23755 132.363 8.90843C132.363 8.57932 132.25 8.31843 132.026 8.12577C131.801 7.92509 131.512 7.82475 131.159 7.82475H129.365V9.99212H131.159Z" fill="#636872"/>
<path fill-rule="evenodd" clip-rule="evenodd" d="M10.2358 3.60566C13.3771 4.07057 15.8975 6.65439 16.1563 9.9524C16.4363 13.5205 13.9712 16.6751 10.537 17.3377C10.1182 17.4181 9.84332 17.824 9.92382 18.2437C10.0043 18.6635 10.4112 18.9383 10.8299 18.8569C15.0281 18.048 18.0419 14.1923 17.6997 9.83128C17.3834 5.80017 14.3015 2.64217 10.463 2.07377C10.0398 2.0109 9.64641 2.30382 9.58347 2.7261C9.52148 3.1483 9.81353 3.54272 10.2358 3.60566Z" fill="#636872"/>
<path fill-rule="evenodd" clip-rule="evenodd" d="M10.0523 6.15864C9.53451 5.84816 8.88774 5.84816 8.36998 6.15864C7.41788 6.72973 5.21438 8.05252 4.6476 8.39224C4.33023 8.58232 4.13672 8.92463 4.13672 9.29446C4.13672 10.1098 4.79811 10.7712 5.61346 10.7712C7.22953 10.7712 11.1927 10.7712 12.8088 10.7712C13.6241 10.7712 14.2855 10.1098 14.2855 9.29446C14.2855 8.92463 14.092 8.58232 13.7746 8.39224L10.0523 6.15864ZM12.15 9.22307L9.25499 7.48573C9.22832 7.46939 9.19392 7.46939 9.16726 7.48573L6.27227 9.22307H12.15Z" fill="#636872"/>
<path fill-rule="evenodd" clip-rule="evenodd" d="M6.54422 14.213V9.22461H4.99609V14.213H6.54422ZM9.98449 14.213V9.22461H8.43637V14.213H9.98449ZM13.4248 14.213V9.22461H11.8766V14.213H13.4248Z" fill="#636872"/>
<path fill-rule="evenodd" clip-rule="evenodd" d="M4.91078 14.2122H13.5115C13.9389 14.2122 14.2855 13.8656 14.2855 13.4381C14.2855 13.0107 13.9389 12.6641 13.5115 12.6641H4.91078C4.48333 12.6641 4.13672 13.0107 4.13672 13.4381C4.13672 13.8656 4.48333 14.2122 4.91078 14.2122Z" fill="#636872"/>
<path fill-rule="evenodd" clip-rule="evenodd" d="M10.791 3.48018L12.2948 2.44713C12.6459 2.20523 12.7353 1.72325 12.4944 1.37151C12.2537 1.01892 11.7632 0.927898 11.412 1.17064L9.90814 2.20369C9.55708 2.44558 9.46764 2.92757 9.70853 3.27931C9.94926 3.6319 10.4398 3.72292 10.791 3.48018Z" fill="#636872"/>
<path fill-rule="evenodd" clip-rule="evenodd" d="M9.70954 3.27844L10.7426 4.78228C10.9833 5.13487 11.4738 5.22589 11.825 4.98315C12.1761 4.74126 12.2655 4.25927 12.0246 3.90753L10.9916 2.40369C10.7509 2.05111 10.2604 1.96009 9.90915 2.20282C9.5581 2.44472 9.46866 2.9267 9.70954 3.27844Z" fill="#636872"/>
<path fill-rule="evenodd" clip-rule="evenodd" d="M7.64849 17.5198L6.14465 18.5529C5.7936 18.7948 5.70416 19.2768 5.94505 19.6285C6.18578 19.9811 6.67627 20.0721 7.02748 19.8294L8.53132 18.7963C8.88237 18.5544 8.97181 18.0724 8.73092 17.7207C8.49019 17.3681 7.9997 17.2771 7.64849 17.5198Z" fill="#636872"/>
<path fill-rule="evenodd" clip-rule="evenodd" d="M8.72991 17.7196L7.69685 16.2158C7.45612 15.8632 6.96563 15.7722 6.61442 16.0149C6.26337 16.2568 6.17392 16.7388 6.41481 17.0905L7.44787 18.5944C7.6886 18.9469 8.17909 19.038 8.5303 18.7952C8.88135 18.5533 8.9708 18.0713 8.72991 17.7196Z" fill="#636872"/>
<path fill-rule="evenodd" clip-rule="evenodd" d="M8.19957 17.3919C5.05288 16.9323 2.52643 14.3461 2.26725 11.0432C1.98679 7.46935 4.4603 4.31021 7.90293 3.65572C8.32172 3.5753 8.5976 3.17028 8.51807 2.75044C8.43854 2.33061 8.03256 2.05481 7.61273 2.13434C3.40515 2.93524 0.381111 6.79659 0.723864 11.1643C1.04065 15.2012 4.12947 18.3616 7.97523 18.9236C8.39839 18.9855 8.79176 18.6926 8.85375 18.2704C8.91469 17.8473 8.62177 17.4539 8.19957 17.3919Z" fill="#636872"/>
</svg>
