<svg width="95" height="19" viewBox="0 0 95 19" fill="none" xmlns="http://www.w3.org/2000/svg">
<g clip-path="url(#clip0_1754_4206)">
<path d="M9.17266 8.91115L8.65247 6.96949C9.2029 6.83339 10.799 6.17483 11.2156 7.35208C11.4198 8.62383 9.72007 8.77127 9.17266 8.91115ZM9.39117 9.9039L9.96203 12.0429C10.6183 11.8705 12.6053 11.6951 12.4125 10.2653C12.0851 9.00566 10.0497 9.73151 9.39117 9.9039ZM19.1229 9.50091C19.1229 14.5116 15.0604 18.5741 10.0497 18.5741C5.03907 18.5741 0.976562 14.5116 0.976562 9.50091C0.976562 4.49025 5.03907 0.427734 10.0497 0.427734C15.0604 0.427734 19.1229 4.49025 19.1229 9.50091ZM14.3285 10.0007C14.1901 9.13042 13.239 8.41666 12.4496 8.33576C12.9358 7.90478 13.1822 7.27647 12.8806 6.45459C12.4246 5.42025 11.3767 5.19947 10.0943 5.41344L9.68151 3.81505L8.70993 4.06608L9.1152 5.65993C8.85964 5.7242 8.59727 5.77939 8.33717 5.85349L7.93115 4.26871L6.95956 4.51973L7.37164 6.11812C7.1622 6.17786 5.40956 6.62698 5.40956 6.62698L5.67647 7.66812C5.67647 7.66812 6.39022 7.46776 6.38342 7.48364C6.77961 7.38005 6.96637 7.57815 7.05332 7.76491L8.18595 12.145C8.19956 12.272 8.17688 12.4882 7.90468 12.5616C7.92056 12.5707 7.19773 12.7438 7.19773 12.7438L7.30359 13.9573C7.30359 13.9573 9.03959 13.5128 9.26793 13.4553L9.68454 15.0718L10.6561 14.8208L10.2395 13.1929C10.5064 13.1309 10.7665 13.0659 11.0198 12.9994L11.4341 14.6182L12.4057 14.3671L11.9891 12.7529C13.4877 12.3884 14.5447 11.4448 14.3285 10.0007Z" fill="#636872"/>
</g>
<path d="M32.7284 14.98C31.154 14.98 29.8386 14.4828 28.7821 13.4885C27.736 12.4838 27.2129 11.1943 27.2129 9.61989C27.2129 8.04551 27.736 6.76116 28.7821 5.76681C29.8386 4.76212 31.154 4.25977 32.7284 4.25977C34.6653 4.25977 36.1102 5.10392 37.0631 6.79223L35.1676 7.72442C34.9398 7.2894 34.6031 6.93206 34.1577 6.6524C33.7227 6.36238 33.2463 6.21738 32.7284 6.21738C31.7858 6.21738 31.009 6.53847 30.3979 7.18064C29.7868 7.82282 29.4812 8.6359 29.4812 9.61989C29.4812 10.6039 29.7868 11.417 30.3979 12.0591C31.009 12.7013 31.7858 13.0224 32.7284 13.0224C33.2463 13.0224 33.7227 12.8826 34.1577 12.6029C34.6031 12.3233 34.9398 11.9607 35.1676 11.5154L37.0631 12.432C36.0791 14.1307 34.6342 14.98 32.7284 14.98Z" fill="#636872"/>
<path d="M48.3197 14.7936H45.7872L43.752 11.1114H42.1361V14.7936H39.93V4.43067H44.7774C45.8442 4.43067 46.6884 4.7414 47.3098 5.36286C47.9417 5.98433 48.2576 6.78705 48.2576 7.77103C48.2576 8.62037 48.0349 9.30916 47.5895 9.8374C47.1545 10.3656 46.621 10.7023 45.9892 10.8473L48.3197 14.7936ZM44.4511 9.16933C44.9068 9.16933 45.2797 9.04503 45.5697 8.79645C45.8597 8.53751 46.0048 8.1957 46.0048 7.77103C46.0048 7.34637 45.8597 7.00974 45.5697 6.76116C45.2797 6.50221 44.9068 6.37274 44.4511 6.37274H42.1361V9.16933H44.4511Z" fill="#636872"/>
<path d="M56.29 14.7936H54.0838V10.5521L50.0909 4.43067H52.6078L55.1869 8.59447L57.7349 4.43067H60.2518L56.29 10.5521V14.7936Z" fill="#636872"/>
<path d="M64.9676 14.7936H62.7614V4.43067H67.6089C68.6964 4.43067 69.5458 4.75176 70.1569 5.39394C70.7783 6.02576 71.0891 6.81812 71.0891 7.77103C71.0891 8.71359 70.7783 9.50595 70.1569 10.1481C69.5354 10.7903 68.6861 11.1114 67.6089 11.1114H64.9676V14.7936ZM67.3137 9.16933C67.759 9.16933 68.1216 9.04503 68.4012 8.79645C68.6912 8.53751 68.8363 8.1957 68.8363 7.77103C68.8363 7.34637 68.6912 7.00974 68.4012 6.76116C68.1216 6.50221 67.759 6.37274 67.3137 6.37274H64.9676V9.16933H67.3137Z" fill="#636872"/>
<path d="M78.6247 14.7936H76.4029V6.37274H73.3733V4.43067H81.6388V6.37274H78.6247V14.7936Z" fill="#636872"/>
<path d="M89.137 14.98C87.573 14.98 86.2783 14.4777 85.2528 13.473C84.2378 12.4579 83.7303 11.1735 83.7303 9.61989C83.7303 8.06623 84.2378 6.78705 85.2528 5.78235C86.2783 4.76729 87.573 4.25977 89.137 4.25977C90.7114 4.25977 92.0061 4.76212 93.0211 5.76681C94.0465 6.77151 94.5593 8.05587 94.5593 9.61989C94.5593 11.1839 94.0465 12.4683 93.0211 13.473C92.0061 14.4777 90.7114 14.98 89.137 14.98ZM86.8531 12.0591C87.4331 12.7013 88.1944 13.0224 89.137 13.0224C90.0795 13.0224 90.8408 12.7013 91.4209 12.0591C92.0009 11.417 92.2909 10.6039 92.2909 9.61989C92.2909 8.6359 92.0009 7.82282 91.4209 7.18064C90.8408 6.53847 90.0795 6.21738 89.137 6.21738C88.1944 6.21738 87.4331 6.53847 86.8531 7.18064C86.2834 7.82282 85.9986 8.6359 85.9986 9.61989C85.9986 10.6039 86.2834 11.417 86.8531 12.0591Z" fill="#636872"/>
<defs>
<clipPath id="clip0_1754_4206">
<rect width="18.1463" height="18.1463" fill="white" transform="translate(0.976562 0.427734)"/>
</clipPath>
</defs>
</svg>
