<svg width="39" height="29" viewBox="0 0 39 29" fill="none" xmlns="http://www.w3.org/2000/svg">
<path d="M12.7329 0.267578C11.4302 0.267578 7.50266 1.86056 6.79822 2.179C6.09378 2.49745 5.31143 3.49139 4.42365 5.13186C3.53586 6.77234 2.82239 8.68936 1.6644 11.5101C0.506422 14.3309 0.236375 19.77 0.274974 21.4297C0.313574 23.0895 0.503724 24.385 2.20431 25.3669C3.9049 26.3487 5.4084 27.3746 6.99098 27.9922C8.57355 28.6098 9.65397 29.0533 10.3874 28.4357C11.1207 27.8181 11.6036 26.7375 11.6036 26.7375C11.6036 26.7375 12.2985 25.7727 10.9861 25.1937C9.67374 24.6147 9.01765 24.209 9.07555 23.6107C9.13345 23.0124 9.22936 22.6848 9.55746 22.762C9.88555 22.8392 10.6581 24.2285 13.6302 24.8654C16.6024 25.5022 19.5001 25.4061 19.5001 25.4061C19.5001 25.4061 22.3979 25.5023 25.37 24.8654C28.3422 24.2285 29.1147 22.8392 29.4428 22.762C29.7709 22.6848 29.8668 23.0124 29.9247 23.6107C29.9826 24.209 29.3265 24.6147 28.0141 25.1937C26.7017 25.7727 27.3966 26.7375 27.3966 26.7375C27.3966 26.7375 27.8795 27.8181 28.6129 28.4357C29.3463 29.0533 30.4267 28.6098 32.0092 27.9922C33.5918 27.3746 35.0953 26.3487 36.7959 25.3669C38.4965 24.385 38.6866 23.0895 38.7253 21.4297C38.7638 19.77 38.4938 14.3309 37.3358 11.5101C36.1778 8.68936 35.4644 6.77234 34.5766 5.13186C33.6888 3.49139 32.9064 2.49745 32.202 2.179C31.4976 1.86056 27.57 0.267578 26.2673 0.267578C24.9646 0.267578 24.5793 1.1751 24.5793 1.1751L24.1256 2.179C24.1256 2.179 21.074 1.59927 19.5201 1.59844C17.9662 1.59761 14.8746 2.179 14.8746 2.179L14.4209 1.1751C14.4209 1.1751 14.0357 0.267578 12.7329 0.267578ZM12.8745 12.311C12.8904 12.3109 12.9064 12.3109 12.9223 12.311C14.8216 12.311 16.3613 13.9729 16.3613 16.023C16.3613 18.073 14.8216 19.735 12.9223 19.735C11.023 19.735 9.48325 18.073 9.48325 16.023C9.48307 13.9929 10.9939 12.3392 12.8745 12.311H12.8745ZM26.0779 12.311C26.0939 12.3109 26.1098 12.3109 26.1257 12.311C28.0063 12.3392 29.5171 13.9929 29.517 16.023C29.517 18.073 27.9773 19.735 26.0779 19.735C24.1786 19.735 22.6389 18.073 22.6389 16.023C22.6389 13.9729 24.1786 12.311 26.0779 12.311H26.0779Z" fill="url(#paint0_linear_765_15807)"/>
<defs>
<linearGradient id="paint0_linear_765_15807" x1="19.4997" y1="0.707087" x2="19.4997" y2="26.5042" gradientUnits="userSpaceOnUse">
<stop stop-color="#0CC8EF"/>
<stop offset="1" stop-color="#047AFA"/>
</linearGradient>
</defs>
</svg>
