<svg width="18" height="14" viewBox="0 0 18 14" fill="none" xmlns="http://www.w3.org/2000/svg">
<path d="M17.7225 1.5C17.376 0.9045 16.7385 0.5 16 0.5H9V1.5H17.7225ZM0 10.5H18V11.5H0V10.5ZM9 6.5H18V7.5H9V6.5ZM9 4.5H18V5.5H9V4.5ZM0 8.5H18V9.5H0V8.5ZM2 13.5H16C16.7385 13.5 17.376 13.0955 17.7225 12.5H0.2775C0.624 13.0955 1.2615 13.5 2 13.5ZM9 2.5H18V3.5H9V2.5Z" fill="#B22334"/>
<path d="M0.034 11.8395C0.0425 11.886 0.052 11.9325 0.0635 11.978C0.0765 12.0285 0.0925 12.077 0.1095 12.126C0.154 12.2555 0.208 12.3805 0.276 12.4975L0.2775 12.5H17.7225L17.7235 12.498C17.791 12.3815 17.845 12.2565 17.8895 12.1275C17.9065 12.078 17.923 12.0285 17.936 11.977C17.9475 11.932 17.957 11.886 17.9655 11.8395C17.986 11.7295 18 11.6165 18 11.5H0C0 11.6165 0.014 11.729 0.034 11.8395ZM0 9.5H18V10.5H0V9.5ZM0 7.5V8.5H18V7.5H9H0ZM9 5.5H18V6.5H9V5.5ZM9 3.5H18V4.5H9V3.5ZM0 2.5C0 2.3835 0.015 2.2715 0.034 2.1605C0.014 2.271 0 2.3835 0 2.5ZM0.2775 1.5L0.276 1.5025L0.2775 1.5ZM0.064 2.022C0.0765 1.971 0.094 1.9225 0.11 1.8735C0.093 1.9225 0.077 1.9715 0.064 2.022ZM9 2.5H18C18 2.3835 17.986 2.2705 17.9655 2.16C17.957 2.114 17.948 2.068 17.936 2.023C17.9225 1.9715 17.9065 1.9215 17.889 1.872C17.8445 1.743 17.7905 1.6185 17.723 1.502C17.7235 1.5015 17.723 1.5005 17.7225 1.5H9V2.5Z" fill="#EEEEEE"/>
<path d="M9 0.5H2C0.8955 0.5 0 1.3955 0 2.5V7.5H9V0.5Z" fill="#3C3B6E"/>
<path d="M1 1.863L1.309 2.0875L1.191 2.45L1.4995 2.226L1.8085 2.45L1.6905 2.0875L1.9995 1.863H1.6175L1.4995 1.5L1.382 1.863H1ZM2 2.863L2.309 3.0875L2.191 3.45L2.4995 3.226L2.8085 3.45L2.6905 3.0875L2.9995 2.863H2.6175L2.4995 2.5L2.382 2.863H2ZM4 2.863L4.309 3.0875L4.191 3.45L4.4995 3.226L4.8085 3.45L4.6905 3.0875L4.9995 2.863H4.6175L4.4995 2.5L4.382 2.863H4ZM6 2.863L6.309 3.0875L6.191 3.45L6.4995 3.226L6.8085 3.45L6.6905 3.0875L6.9995 2.863H6.6175L6.4995 2.5L6.382 2.863H6ZM2 4.863L2.309 5.0875L2.191 5.45L2.4995 5.226L2.8085 5.45L2.6905 5.0875L2.9995 4.863H2.6175L2.4995 4.5L2.382 4.863H2ZM4 4.863L4.309 5.0875L4.191 5.45L4.4995 5.226L4.8085 5.45L4.6905 5.0875L4.9995 4.863H4.6175L4.4995 4.5L4.382 4.863H4ZM6 4.863L6.309 5.0875L6.191 5.45L6.4995 5.226L6.8085 5.45L6.6905 5.0875L6.9995 4.863H6.6175L6.4995 4.5L6.382 4.863H6ZM3 1.863L3.309 2.0875L3.191 2.45L3.4995 2.226L3.8085 2.45L3.6905 2.0875L3.9995 1.863H3.6175L3.4995 1.5L3.382 1.863H3ZM5 1.863L5.309 2.0875L5.191 2.45L5.4995 2.226L5.8085 2.45L5.6905 2.0875L5.9995 1.863H5.6175L5.4995 1.5L5.382 1.863H5ZM7 1.863L7.309 2.0875L7.191 2.45L7.4995 2.226L7.8085 2.45L7.6905 2.0875L7.9995 1.863H7.6175L7.4995 1.5L7.382 1.863H7ZM1 3.863L1.309 4.0875L1.191 4.45L1.4995 4.226L1.8085 4.45L1.6905 4.0875L1.9995 3.863H1.6175L1.4995 3.5L1.382 3.863H1ZM3.191 4.45L3.4995 4.226L3.8085 4.45L3.6905 4.0875L3.9995 3.863H3.6175L3.4995 3.5L3.382 3.863H3L3.309 4.0875L3.191 4.45ZM5 3.863L5.309 4.0875L5.191 4.45L5.4995 4.226L5.8085 4.45L5.6905 4.0875L5.9995 3.863H5.6175L5.4995 3.5L5.382 3.863H5ZM7 3.863L7.309 4.0875L7.191 4.45L7.4995 4.226L7.8085 4.45L7.6905 4.0875L7.9995 3.863H7.6175L7.4995 3.5L7.382 3.863H7ZM1 5.863L1.309 6.0875L1.191 6.45L1.4995 6.226L1.8085 6.45L1.6905 6.0875L1.9995 5.863H1.6175L1.4995 5.5L1.382 5.863H1ZM3.191 6.45L3.4995 6.226L3.8085 6.45L3.6905 6.0875L3.9995 5.863H3.6175L3.4995 5.5L3.382 5.863H3L3.309 6.0875L3.191 6.45ZM5 5.863L5.309 6.0875L5.191 6.45L5.4995 6.226L5.8085 6.45L5.6905 6.0875L5.9995 5.863H5.6175L5.4995 5.5L5.382 5.863H5ZM7 5.863L7.309 6.0875L7.191 6.45L7.4995 6.226L7.8085 6.45L7.6905 6.0875L7.9995 5.863H7.6175L7.4995 5.5L7.382 5.863H7Z" fill="#212121"/>
</svg>
