<svg width="19" height="22" viewBox="0 0 19 22" fill="none" xmlns="http://www.w3.org/2000/svg">
<path d="M9.89918 11.3606L14.281 18.8823C14.3529 19.0053 14.3997 19.1411 14.4186 19.2821C14.4374 19.4231 14.4281 19.5664 14.391 19.7037C14.354 19.8411 14.2899 19.9699 14.2026 20.0827C14.1153 20.1955 14.0063 20.29 13.8821 20.361L12.6215 21.0834C12.4975 21.1548 12.3605 21.2011 12.2184 21.2199C12.0762 21.2386 11.9318 21.2293 11.7933 21.1926C11.6548 21.1558 11.5249 21.0923 11.4112 21.0057C11.2975 20.919 11.2022 20.811 11.1307 20.6877C11.1307 20.6877 10.1405 15.9211 8.01895 15.3589C5.89736 14.7968 2.64299 18.4407 2.64299 18.4407C2.51897 18.5121 2.38197 18.5584 2.23985 18.5772C2.09772 18.5959 1.95326 18.5866 1.81476 18.5499C1.67626 18.5131 1.54643 18.4496 1.43273 18.363C1.31903 18.2763 1.22368 18.1683 1.15217 18.045L0.418472 16.7971C0.346525 16.674 0.299768 16.5382 0.280881 16.3972C0.261993 16.2562 0.271348 16.1129 0.308408 15.9756C0.345468 15.8382 0.409504 15.7094 0.496845 15.5966C0.584186 15.4839 0.693113 15.3893 0.817379 15.3184L8.40075 10.9722C8.52465 10.8994 8.66188 10.8516 8.8045 10.8317C8.94713 10.8118 9.09231 10.8201 9.23166 10.8563C9.37102 10.8924 9.50176 10.9555 9.61634 11.0421C9.73092 11.1287 9.82705 11.2369 9.89918 11.3606Z" fill="#F6F8FA"/>
<path d="M12.6199 2.37423L17.0017 9.89593C17.0736 10.0189 17.1204 10.1548 17.1393 10.2958C17.1582 10.4368 17.1488 10.58 17.1117 10.7174C17.0747 10.8548 17.0106 10.9836 16.9233 11.0963C16.836 11.2091 16.727 11.3037 16.6028 11.3746L15.3422 12.0971C15.2182 12.1684 15.0812 12.2148 14.9391 12.2335C14.7969 12.2523 14.6525 12.243 14.514 12.2062C14.3755 12.1695 14.2456 12.106 14.1319 12.0193C14.0182 11.9327 13.9229 11.8247 13.8514 11.7014C13.8514 11.7014 12.8612 6.93473 10.7396 6.37259C8.61806 5.81046 5.36369 9.45438 5.36369 9.45438C5.23968 9.52574 5.10268 9.57212 4.96055 9.59085C4.81842 9.60958 4.67397 9.60031 4.53546 9.56355C4.39696 9.52679 4.26713 9.46327 4.15343 9.37664C4.03973 9.29001 3.94439 9.18197 3.87287 9.05871L3.13918 7.81072C3.06723 7.68771 3.02047 7.55183 3.00158 7.41086C2.9827 7.26989 2.99205 7.12661 3.02911 6.98923C3.06617 6.85185 3.13021 6.72308 3.21755 6.6103C3.30489 6.49753 3.41382 6.40296 3.53808 6.33202L11.1215 1.98587C11.2453 1.91302 11.3826 1.86527 11.5252 1.84537C11.6678 1.82547 11.813 1.83381 11.9524 1.86993C12.0917 1.90605 12.2225 1.96921 12.337 2.05578C12.4516 2.14234 12.5478 2.25058 12.6199 2.37423Z" fill="#F6F8FA"/>
</svg>
