<svg width="40" height="25" viewBox="0 0 40 25" fill="none" xmlns="http://www.w3.org/2000/svg">
<path d="M19.0217 22.2515C19.1167 22.3326 19.2183 22.4137 19.3182 22.4931C17.39 23.7888 15.0752 24.5417 12.5901 24.5417C5.87831 24.5433 0.439453 19.0495 0.439453 12.2717C0.439453 5.49544 5.87832 0 12.5884 0C15.0752 0 17.39 0.754568 19.3133 2.04859C19.215 2.13298 19.1167 2.21075 19.043 2.2968C16.1663 4.80706 14.5199 8.44587 14.5199 12.2717C14.5199 16.0958 16.1597 19.7346 19.0217 22.2515ZM27.6075 0C25.1175 0 22.806 0.754568 20.8827 2.04859C20.981 2.13298 21.0793 2.21075 21.153 2.2968C24.0297 4.80706 25.6761 8.44587 25.6761 12.2717C25.6761 16.0941 24.0362 19.7296 21.1743 22.2515C21.0793 22.3326 20.9777 22.4137 20.8778 22.4931C22.806 23.7888 25.1175 24.5417 27.6059 24.5417C34.3177 24.5433 39.7565 19.0495 39.7565 12.2717C39.7565 5.4971 34.3177 0 27.6075 0ZM20.098 2.63106C19.9407 2.75517 19.7884 2.87927 19.6393 3.01331C17.0771 5.26212 15.4602 8.57329 15.4602 12.2717C15.4602 15.9717 17.0771 19.2812 19.6393 21.53C19.7867 21.6624 19.9424 21.7915 20.098 21.9139C20.2553 21.7915 20.4076 21.6624 20.5567 21.53C23.1172 19.2812 24.7358 15.9717 24.7358 12.2717C24.7358 8.57329 23.1189 5.26212 20.5567 3.01331C20.4093 2.88093 20.2553 2.75517 20.098 2.63106Z" fill="#636872"/>
</svg>
