<svg width="84" height="21" viewBox="0 0 84 21" fill="none" xmlns="http://www.w3.org/2000/svg">
<path d="M15.8842 1.58258C14.9133 0.474255 13.1582 -0.000911713 10.9131 -0.000911713H4.39689C4.17464 -0.00102997 3.95964 0.0783024 3.79058 0.222807C3.62153 0.367311 3.50952 0.567501 3.47471 0.787352L0.76267 18.0228C0.750094 18.1028 0.754975 18.1845 0.776976 18.2624C0.798977 18.3403 0.837576 18.4125 0.890112 18.474C0.942648 18.5355 1.00787 18.5848 1.08129 18.6187C1.15471 18.6525 1.23458 18.67 1.3154 18.6699H5.33822L6.34856 12.2517L6.31724 12.4527C6.35138 12.2333 6.46264 12.0333 6.63098 11.8888C6.79931 11.7443 7.01365 11.6647 7.23537 11.6644H9.14702C12.9025 11.6644 15.843 10.1367 16.702 5.71733C16.7275 5.58663 16.7495 5.45942 16.7687 5.33511C17.0239 3.70166 16.7669 2.58984 15.8848 1.58317" fill="#A5A9B4"/>
<path d="M65.1338 9.78503C64.8878 11.4022 63.6548 11.4022 62.4623 11.4022H61.7837L62.2599 8.38277C62.2889 8.20037 62.4455 8.06619 62.6299 8.06619H62.9414C63.7534 8.06619 64.5201 8.06619 64.9157 8.52915C65.1517 8.80624 65.2231 9.2175 65.1338 9.78503ZM64.6147 5.56548H60.1163C59.9673 5.56555 59.8232 5.61881 59.7099 5.71569C59.5966 5.81257 59.5214 5.94673 59.498 6.09408L57.6803 17.6462C57.6719 17.6997 57.6752 17.7544 57.69 17.8066C57.7047 17.8588 57.7305 17.9071 57.7657 17.9483C57.8008 17.9896 57.8445 18.0227 57.8936 18.0454C57.9427 18.0681 57.9962 18.08 58.0503 18.0801H60.3587C60.5739 18.0801 60.7571 17.9232 60.7908 17.7106L61.307 14.4344C61.3545 14.1306 61.6167 13.9058 61.9241 13.9058H63.3474C66.3111 13.9058 68.021 12.4705 68.4676 9.62354C68.6688 8.37929 68.4757 7.40107 67.8939 6.71621C67.2542 5.96338 66.1203 5.5649 64.6152 5.5649" fill="#636872"/>
<path d="M33.0479 9.78521C32.802 11.4024 31.5689 11.4024 30.3759 11.4024H29.6973L30.1735 8.38296C30.2025 8.20056 30.3591 8.06637 30.5435 8.06637H30.855C31.667 8.06637 32.4337 8.06637 32.8293 8.52934C33.0659 8.80642 33.1372 9.21769 33.0479 9.78521ZM32.5288 5.56566H28.0304C27.723 5.56566 27.4609 5.78988 27.4127 6.09427L25.5945 17.6463C25.586 17.6999 25.5892 17.7547 25.6039 17.8069C25.6186 17.8591 25.6444 17.9075 25.6796 17.9487C25.7148 17.99 25.7585 18.0231 25.8076 18.0458C25.8568 18.0685 25.9103 18.0803 25.9645 18.0803H28.1128C28.4202 18.0803 28.6817 17.856 28.7299 17.5517L29.2211 14.4352C29.2687 14.1308 29.5308 13.9066 29.8382 13.9066H31.2615C34.2253 13.9066 35.9351 12.4706 36.3817 9.62373C36.583 8.37947 36.3898 7.40126 35.8081 6.7164C35.1684 5.96357 34.0345 5.56508 32.5294 5.56508L32.5288 5.56566ZM42.9727 13.9327C42.7639 15.1654 41.7878 15.9931 40.5414 15.9931C39.9167 15.9931 39.4162 15.7916 39.0949 15.4105C38.7759 15.0329 38.6564 14.4945 38.7573 13.8956C38.9511 12.6734 39.944 11.8195 41.1713 11.8195C41.7832 11.8195 42.279 12.0228 42.6073 12.4073C42.9373 12.7948 43.0673 13.3362 42.9727 13.9327ZM45.9747 9.73294H43.8207C43.7311 9.73283 43.6445 9.7648 43.5764 9.82307C43.5083 9.88134 43.4633 9.96207 43.4495 10.0507L43.3555 10.6536L43.2047 10.4352C42.7384 9.75733 41.6985 9.53021 40.6603 9.53021C38.2806 9.53021 36.2477 11.3368 35.8522 13.8694C35.6463 15.134 35.9386 16.3417 36.6543 17.1845C37.3114 17.9589 38.2493 18.2812 39.3669 18.2812C41.2855 18.2812 42.3492 17.0474 42.3492 17.0474L42.2529 17.6469C42.2445 17.7005 42.2477 17.7554 42.2624 17.8076C42.2772 17.8598 42.3031 17.9083 42.3383 17.9495C42.3735 17.9908 42.4173 18.0239 42.4665 18.0466C42.5158 18.0692 42.5694 18.0809 42.6236 18.0808H44.563C44.8704 18.0808 45.1326 17.8572 45.1807 17.5522L46.3454 10.1674C46.3537 10.1138 46.3504 10.059 46.3356 10.0067C46.3208 9.95447 46.2949 9.90606 46.2596 9.86482C46.2243 9.82358 46.1805 9.79049 46.1313 9.76782C46.082 9.74516 46.0284 9.73345 45.9742 9.73352" fill="#A5A9B4"/>
<path d="M75.058 13.9327C74.8492 15.1654 73.8731 15.9931 72.6267 15.9931C72.0021 15.9931 71.5015 15.7916 71.1802 15.4105C70.8612 15.0329 70.7417 14.4945 70.8427 13.8956C71.0364 12.6734 72.0287 11.8195 73.2566 11.8195C73.8685 11.8195 74.3644 12.0228 74.6926 12.4073C75.0227 12.7948 75.1526 13.3362 75.058 13.9327ZM78.0601 9.73293H75.906C75.8164 9.73282 75.7298 9.76479 75.6617 9.82306C75.5936 9.88133 75.5486 9.96206 75.5348 10.0507L75.4408 10.6536L75.29 10.4352C74.8237 9.75732 73.7838 9.5302 72.7456 9.5302C70.3665 9.5302 68.3336 11.3368 67.9375 13.8694C67.7316 15.134 68.0245 16.3417 68.7402 17.1845C69.3973 17.9589 70.3352 18.2812 71.4528 18.2812C73.372 18.2812 74.4357 17.0474 74.4357 17.0474L74.3394 17.6469C74.3308 17.7005 74.3338 17.7553 74.3484 17.8075C74.363 17.8598 74.3888 17.9082 74.4239 17.9495C74.4591 17.9908 74.5028 18.0239 74.552 18.0466C74.6012 18.0693 74.6547 18.081 74.7089 18.0808H76.6478C76.9552 18.0808 77.2173 17.8572 77.2661 17.5522L78.4307 10.1674C78.4391 10.1138 78.4357 10.0589 78.4209 10.0067C78.4061 9.95446 78.3802 9.90605 78.3449 9.86481C78.3096 9.82357 78.2658 9.79048 78.2166 9.76781C78.1673 9.74514 78.1137 9.73344 78.0595 9.73351" fill="#636872"/>
<path d="M57.4473 9.73314H55.2816C55.0745 9.73314 54.8814 9.83596 54.7654 10.0079L51.7784 14.4133L50.5123 10.1798C50.4737 10.0507 50.3946 9.93749 50.2867 9.85693C50.1787 9.77636 50.0478 9.73276 49.9132 9.73256H47.7852C47.7256 9.73259 47.6667 9.74687 47.6137 9.77422C47.5606 9.80157 47.5149 9.8412 47.4801 9.88981C47.4454 9.93843 47.4228 9.99463 47.4141 10.0538C47.4055 10.1129 47.411 10.1732 47.4303 10.2298L49.814 17.2388L47.5718 20.4075C47.5322 20.4637 47.5087 20.5298 47.504 20.5985C47.4993 20.6672 47.5136 20.7358 47.5452 20.7969C47.5768 20.8581 47.6245 20.9093 47.6832 20.9451C47.7419 20.981 47.8093 20.9999 47.878 21H50.0414C50.2455 21 50.4375 20.8995 50.5547 20.7311L57.7546 10.3227C57.7937 10.2665 57.8167 10.2006 57.821 10.1322C57.8254 10.0638 57.8109 9.99546 57.7792 9.9347C57.7476 9.87394 57.6999 9.82303 57.6413 9.7875C57.5828 9.75197 57.5157 9.73317 57.4473 9.73314Z" fill="#A5A9B4"/>
<path d="M80.5993 5.88264L78.7526 17.6462C78.7442 17.6998 78.7475 17.7545 78.7623 17.8067C78.777 17.8589 78.8029 17.9073 78.8381 17.9486C78.8734 17.9898 78.9171 18.0229 78.9663 18.0456C79.0155 18.0683 79.069 18.0801 79.1232 18.0801H80.9797C81.2871 18.0801 81.5493 17.8559 81.5974 17.5515L83.418 5.99882C83.4265 5.9452 83.4232 5.89038 83.4085 5.83813C83.3938 5.78589 83.3679 5.73747 83.3327 5.69622C83.2974 5.65497 83.2537 5.62186 83.2044 5.59919C83.1552 5.57652 83.1016 5.56482 83.0474 5.5649H80.9699C80.8804 5.56467 80.7939 5.59654 80.7259 5.65472C80.6579 5.7129 80.613 5.79355 80.5993 5.88206" fill="#636872"/>
<path d="M15.8842 1.58258C14.9133 0.474255 13.1582 -0.000911713 10.9131 -0.000911713H4.39689C4.17464 -0.00102997 3.95964 0.0783024 3.79058 0.222807C3.62153 0.367311 3.50952 0.567501 3.47471 0.787352L0.76267 18.0228C0.750094 18.1028 0.754975 18.1845 0.776976 18.2624C0.798977 18.3403 0.837576 18.4125 0.890112 18.474C0.942648 18.5355 1.00787 18.5848 1.08129 18.6187C1.15471 18.6525 1.23458 18.67 1.3154 18.6699H5.33822L6.34856 12.2517L6.31724 12.4527C6.35138 12.2333 6.46264 12.0333 6.63098 11.8888C6.79931 11.7443 7.01365 11.6647 7.23537 11.6644H9.14702C12.9025 11.6644 15.843 10.1367 16.702 5.71733C16.7275 5.58663 16.7495 5.45942 16.7687 5.33511C17.0239 3.70166 16.7669 2.58984 15.8848 1.58317" fill="#A5A9B4"/>
<path d="M7.43439 5.3572C7.46488 5.1651 7.56272 4.99016 7.71037 4.8638C7.85801 4.73743 8.04579 4.6679 8.24 4.66769H13.3486C13.9535 4.66769 14.5178 4.70718 15.0334 4.78967C15.3153 4.83509 15.5942 4.89756 15.8686 4.97672C16.1802 5.06445 16.4817 5.18478 16.7682 5.3357C17.0245 3.70167 16.767 2.59044 15.8849 1.58319C14.9134 0.475439 13.1589 0.000272751 10.9138 0.000272751H4.39698C4.17493 0.000431061 3.96021 0.0798874 3.79139 0.224367C3.62258 0.368847 3.51074 0.568882 3.47596 0.788536L0.762761 18.0222C0.750101 18.1022 0.754898 18.1839 0.776823 18.2619C0.798749 18.3398 0.83728 18.412 0.889762 18.4736C0.942245 18.5351 1.00743 18.5846 1.08083 18.6185C1.15422 18.6524 1.23409 18.6699 1.31491 18.6699H5.33831L6.34865 12.2511L7.43439 5.3572Z" fill="#A5A9B4"/>
<path d="M16.7696 5.33526C16.7496 5.46306 16.7274 5.59049 16.7029 5.71748C15.8439 10.1363 12.9033 11.6646 9.1479 11.6646H7.23567C7.01399 11.6647 6.79967 11.7443 6.63141 11.8888C6.46315 12.0334 6.35203 12.2334 6.31813 12.4528L5.33911 18.6695L5.06071 20.4331C5.04964 20.5031 5.05386 20.5747 5.07308 20.6429C5.09231 20.7111 5.12607 20.7743 5.17205 20.8282C5.21803 20.8821 5.27513 20.9254 5.33942 20.955C5.4037 20.9847 5.47365 21 5.54442 21H8.93563C9.33698 21 9.67801 20.7072 9.74123 20.3105L9.77429 20.1374L10.4134 16.0805L10.454 15.8563C10.4844 15.664 10.5823 15.4889 10.7301 15.3625C10.8779 15.2361 11.0659 15.1667 11.2602 15.1667H11.7677C15.0528 15.1667 17.625 13.8307 18.3767 9.96433C18.6899 8.34947 18.5275 7.00007 17.6981 6.05265C17.4348 5.75892 17.1201 5.5158 16.7696 5.33526Z" fill="#636872"/>
<path d="M15.8702 4.97711C15.7392 4.93819 15.604 4.90333 15.4648 4.87255C15.3256 4.84176 15.1818 4.81446 15.0345 4.79122C14.5183 4.70699 13.9545 4.66749 13.349 4.66749H8.24103C8.04661 4.66725 7.85851 4.7367 7.71075 4.86327C7.563 4.98984 7.46534 5.16518 7.43542 5.35759L6.34968 12.2527L6.31836 12.4531C6.35226 12.2337 6.46338 12.0337 6.63164 11.8891C6.7999 11.7446 7.01422 11.665 7.23591 11.6649H9.14814C12.9036 11.6649 15.8441 10.1371 16.7031 5.71774C16.7286 5.58704 16.7501 5.4604 16.7698 5.33551C16.543 5.21663 16.3067 5.11677 16.0634 5.03694C16.0002 5.01603 15.9358 4.99628 15.8702 4.97653" fill="#F6F8FA"/>
</svg>
