<svg width="112" height="21" viewBox="0 0 112 21" fill="none" xmlns="http://www.w3.org/2000/svg">
<path d="M20.8343 9.50912C20.822 9.12949 20.6432 8.93353 20.296 8.92067H18.4417C18.0029 8.94757 17.7761 9.18857 17.7656 9.64191V12.9802C17.7761 13.4482 18.0268 13.6868 18.5142 13.7003H20.2136C20.3901 13.7003 20.5368 13.6348 20.6537 13.5008C20.7758 13.4002 20.8343 13.2709 20.8343 13.1107V9.50912ZM15.3848 9.03531C15.397 8.20001 15.5829 7.56534 15.9434 7.13131C16.1322 6.94939 16.3683 6.7973 16.6558 6.67154C16.9545 6.53759 17.2437 6.47266 17.5242 6.47266H20.9278C22.4291 6.48552 23.1923 7.30738 23.2162 8.93997V13.9647C23.2051 14.5444 22.9784 15.0474 22.5401 15.468C22.1059 15.9102 21.5875 16.1354 20.9839 16.1489H17.7656V19.7715H15.3848V9.03531Z" fill="#636872"/>
<path d="M27.5142 13.2154C27.5142 13.3552 27.5785 13.4657 27.7042 13.5488C27.8164 13.6482 27.9578 13.7003 28.1366 13.7003H29.9652C30.3783 13.7003 30.5928 13.54 30.6051 13.2154V12.5321C30.6051 12.1589 30.3871 11.9706 29.9476 11.9706H28.1366C27.8982 11.9706 27.7334 12.0104 27.6416 12.0852C27.5569 12.1736 27.5142 12.3485 27.5142 12.6076V13.2154ZM30.6051 9.45005C30.6174 9.08387 30.4041 8.90897 29.9646 8.92067H25.1696V6.47266H30.5683C32.1409 6.49839 32.9392 7.25883 32.966 8.76039V13.8816C32.9526 14.5292 32.7545 15.0632 32.37 15.4879C31.9679 15.9278 31.4495 16.1489 30.8143 16.1489H27.551C25.9627 16.1354 25.1574 15.4095 25.1328 13.9664V11.9905C25.1451 10.4825 25.9147 9.7162 27.4383 9.68987H30.6051V9.45005Z" fill="#636872"/>
<path d="M39.6521 17.3229C39.8409 17.3112 40.0045 17.2433 40.1372 17.1216C40.2646 17.0082 40.3288 16.8777 40.3288 16.7297V16.1489H37.2806C36.8832 16.1489 36.5653 16.098 36.3281 15.9968C36.0774 15.9049 35.8278 15.7336 35.5765 15.4902C35.3387 15.2323 35.1675 14.9626 35.0634 14.6807C34.9553 14.4227 34.9004 14.0945 34.9004 13.7003V6.47266H37.2806V12.9246C37.2806 13.4417 37.4916 13.7003 37.9188 13.7003H39.5995C39.7994 13.7003 39.9729 13.6348 40.1185 13.5008C40.2587 13.3873 40.3288 13.2528 40.3288 13.0949V6.47266H42.6898V17.1351C42.6764 17.9242 42.4742 18.5559 42.0844 19.035C41.6887 19.5141 41.1476 19.7592 40.4574 19.7715H34.9004V17.3229H39.6521Z" fill="#636872"/>
<path d="M44.5586 13.7003H48.8007C49.1888 13.6868 49.3904 13.5312 49.4026 13.2329V13.013C49.4026 12.9492 49.3834 12.8784 49.346 12.8024C49.2513 12.6175 49.135 12.5257 48.9965 12.5257H46.8933C46.2691 12.5134 45.7367 12.2982 45.2891 11.8828C44.8362 11.4991 44.6042 11.0271 44.5907 10.4731V8.6475C44.6153 7.22315 45.3884 6.49839 46.9114 6.47266H51.8314V8.92067H47.6629C47.1738 8.92067 46.9271 9.071 46.9271 9.37049V9.6074C46.9271 9.918 47.179 10.0736 47.681 10.0736H49.7778C50.3365 10.0865 50.8128 10.3006 51.2096 10.7182C51.6105 11.1388 51.8185 11.6389 51.8314 12.2198V14.0056C51.8185 14.5075 51.5865 15.0082 51.1406 15.5078C50.9232 15.7529 50.7006 15.9213 50.4779 16.0167C50.2477 16.1044 49.935 16.1489 49.5359 16.1489H44.5586V13.7003Z" fill="#636872"/>
<path d="M55.9064 13.2154C55.9064 13.3552 55.9707 13.4657 56.0993 13.5488C56.2103 13.6482 56.3523 13.7003 56.5288 13.7003H58.3609C58.774 13.7003 58.9873 13.54 58.9996 13.2154V12.5321C58.9996 12.1589 58.7787 11.9706 58.341 11.9706H56.5288C56.291 11.9706 56.1267 12.0104 56.0356 12.0852C55.9508 12.1736 55.9064 12.3485 55.9064 12.6076V13.2154ZM58.9996 9.45005C59.0101 9.08387 58.7968 8.90897 58.3568 8.92067H53.563V6.47266H58.9634C60.5342 6.49839 61.3331 7.25883 61.3577 8.76039V13.8816C61.3448 14.5292 61.1449 15.0632 60.7627 15.4879C60.3636 15.9278 59.8447 16.1489 59.2088 16.1489H55.9427C54.3554 16.1354 53.5496 15.4095 53.5273 13.9664V11.9905C53.5379 10.4825 54.3069 9.7162 55.8316 9.68987H58.9996V9.45005Z" fill="#636872"/>
<path d="M63.293 5.08591C63.3076 4.42491 63.5507 3.89437 64.0276 3.4966C64.4904 3.0924 65.0982 2.88475 65.8497 2.87305H67.3615V5.23799H66.4458C65.9426 5.24969 65.6861 5.49069 65.675 5.95631V6.47457H67.3615V8.92492H65.675V16.1514H63.293V5.08591Z" fill="#636872"/>
<path d="M74.1327 9.40442V9.34768C74.1327 9.22192 74.0819 9.11487 73.9796 9.03532C73.8686 8.9581 73.733 8.92067 73.57 8.92067H71.9126C71.6999 8.92067 71.5287 8.98033 71.396 9.10259C71.2312 9.21548 71.1476 9.36406 71.1476 9.54715V10.5299L74.1327 9.40442ZM71.1856 12.865V13.0176C71.1856 13.2136 71.2365 13.3692 71.3399 13.4821C71.4147 13.6266 71.5152 13.7003 71.649 13.7003H76.5399V16.1489H71.3399C70.8654 16.1489 70.4955 16.1044 70.2342 16.0155C69.9485 15.9213 69.6919 15.7675 69.4681 15.5534C69.2063 15.2943 69.028 15.0305 68.9386 14.759C68.8404 14.4759 68.7919 14.1004 68.7919 13.6324L68.7715 8.73231C68.7978 7.25181 69.5704 6.49839 71.0886 6.47266H74.2981C75.7807 6.49839 76.5317 7.27813 76.5556 8.81596V10.7516L71.1856 12.865Z" fill="#636872"/>
<path d="M81.5953 16.1495C81.2347 16.1495 80.9057 16.1162 80.6071 16.0554C80.2944 16.0045 79.9829 15.8594 79.6644 15.6143C79.3378 15.3294 79.1116 15.0101 78.9877 14.6573C78.8568 14.3105 78.7937 13.9174 78.7937 13.4752V8.90613C78.7802 8.53352 78.8176 8.20653 78.9047 7.92283C78.9848 7.63972 79.1531 7.36245 79.4073 7.09104C79.6972 6.80617 79.9929 6.61664 80.3049 6.52364C80.6053 6.44818 80.9437 6.41016 81.3229 6.41016H84.9719V6.98282H81.4077C80.7783 6.98282 80.2839 7.11209 79.9222 7.37123C79.5522 7.65376 79.3635 8.14102 79.3635 8.82775V13.3997C79.3635 13.7214 79.4126 14.0344 79.5102 14.3362C79.6101 14.6328 79.7766 14.8931 80.0157 15.1206C80.2751 15.3178 80.5334 15.4406 80.7853 15.4909C81.0477 15.5488 81.3294 15.5763 81.628 15.5763H85.0292V16.1495H81.5953Z" fill="#636872"/>
<path d="M94.3558 10.2217H89.5719C88.9992 10.2345 88.5504 10.4118 88.2272 10.7534C87.893 11.1003 87.7276 11.5758 87.7276 12.1801V13.6384C87.7276 13.9209 87.7568 14.1794 87.8176 14.4122C87.8778 14.6573 88.028 14.8761 88.2652 15.0639C88.6784 15.4067 89.136 15.5763 89.6362 15.5763H92.5348C93.7463 15.5634 94.3558 14.9247 94.3558 13.6565V10.2217ZM94.9244 13.5138C94.9244 13.8817 94.8964 14.2046 94.849 14.4889C94.7719 14.7977 94.6135 15.0955 94.3733 15.3786C93.8737 15.9056 93.2542 16.1624 92.515 16.1495H89.6707C88.9314 16.1495 88.3324 15.9284 87.8684 15.4886C87.3945 15.0539 87.1543 14.4497 87.1543 13.6746V12.2017C87.1783 10.5399 88.0052 9.68879 89.6345 9.65019H94.3733V9.00557C94.3733 8.47444 94.2196 8.00941 93.914 7.6093C93.72 7.34958 93.4903 7.17585 93.2297 7.08636C92.9661 7.01733 92.6704 6.98282 92.3408 6.98282H87.1712V6.41016H92.072C92.5202 6.41016 92.9252 6.44174 93.2922 6.50375C93.481 6.54118 93.6522 6.61489 93.8106 6.72135C93.9783 6.82254 94.1349 6.97054 94.2798 7.16474C94.7193 7.73214 94.9338 8.3867 94.9244 9.12373V13.5138Z" fill="#636872"/>
<path d="M100.274 6.98282C98.9478 7.00739 98.2939 7.73214 98.3184 9.15824V16.1495H97.7486V9.16058C97.7218 7.32619 98.5943 6.41016 100.366 6.41016H101V6.98282H100.274Z" fill="#636872"/>
<path d="M109.911 6.98666H105.402C105.077 6.98666 104.786 7.02293 104.524 7.09195C104.249 7.15395 103.984 7.32066 103.735 7.59208C103.497 7.83951 103.348 8.08461 103.285 8.3297C103.202 8.57713 103.164 8.8737 103.177 9.21941V13.6767C103.177 14.4178 103.392 14.9221 103.826 15.1929C104.041 15.3187 104.276 15.4128 104.541 15.476C104.803 15.5462 105.097 15.5807 105.42 15.5807H107.392C108.128 15.5807 108.731 15.4111 109.193 15.0689C109.659 14.7478 109.895 14.1938 109.911 13.4041V6.98666ZM110.48 13.4433C110.43 15.2882 109.455 16.1926 107.555 16.1546H105.441C104.995 16.1546 104.595 16.1154 104.242 16.0411C103.879 15.9469 103.531 15.7252 103.196 15.3795C102.945 15.0689 102.783 14.7548 102.718 14.4331C102.631 14.1119 102.593 13.7545 102.606 13.3644V9.20478C102.631 7.33119 103.573 6.39996 105.436 6.41399H109.911V3.25586H110.48V13.4433Z" fill="#636872"/>
<path d="M2.15978 6.10562C2.34679 6.02314 2.53379 5.9588 2.7208 5.91843C3.06442 4.2759 4.51782 3.044 6.2599 3.044C8.00315 3.044 9.45712 4.27765 9.80016 5.9196C10.3349 6.02138 10.7773 6.23782 11.1221 6.56012C11.1361 6.24483 11.1232 5.94125 11.0858 5.65521C10.8655 3.17386 8.78682 1.22656 6.2523 1.22656C3.64298 1.22656 1.5187 3.2967 1.40825 5.88451C1.39306 6.10796 1.38838 6.34077 1.39656 6.5841C1.61571 6.39926 1.86583 6.23314 2.15978 6.10562Z" fill="#636872"/>
<path d="M9.09151 6.47266H3.27677C2.99685 6.47266 2.70699 6.53759 2.40836 6.67154C2.12026 6.7973 1.88416 6.94939 1.69482 7.13131C1.33424 7.56534 1.14958 8.20001 1.13672 9.03532V13.585C1.14958 14.4221 1.33424 15.0562 1.69482 15.4879C1.88416 15.6727 2.12026 15.8248 2.40836 15.9517C2.70699 16.0828 2.99685 16.1489 3.27677 16.1489H9.09151C10.5934 16.1354 11.3572 15.3106 11.3812 13.6804V8.93997C11.3572 7.30738 10.5934 6.48552 9.09151 6.47266Z" fill="#636872"/>
</svg>
