<svg width="58" height="21" viewBox="0 0 58 21" fill="none" xmlns="http://www.w3.org/2000/svg">
<path fill-rule="evenodd" clip-rule="evenodd" d="M41.764 5.39293C43.0688 5.39293 44.1264 4.33585 44.1264 3.03232C44.1264 1.72803 43.0688 0.669922 41.764 0.669922C40.4608 0.669922 39.4037 1.72803 39.4037 3.03232C39.4037 4.33585 40.4608 5.39293 41.764 5.39293ZM23.6712 6.66779C23.5646 6.93555 22.7974 9.10277 20.9418 11.3489V1.74478L15.9977 2.72192V20.1305H20.9418V14.7494C22.3738 16.897 23.0809 20.1305 23.0809 20.1305H29.0028C28.4171 17.6953 25.8547 13.205 25.8547 13.205C28.1544 10.2893 29.1645 7.1825 29.3252 6.66779H23.6712ZM36.669 6.48606C32.2406 6.62819 29.9927 8.61496 29.9927 12.5644V20.1305H34.8238V13.9606C34.8238 11.5956 35.1334 10.5819 37.9397 10.4852V6.55535C37.4674 6.4551 36.669 6.48606 36.669 6.48606ZM7.70601 8.58476C7.10044 8.54491 5.69843 8.4543 5.69843 7.19214C5.69843 5.66907 7.71692 5.66907 8.47402 5.66907C9.80521 5.66907 11.5293 6.06247 12.7605 6.43073C12.7605 6.43073 13.4473 6.67286 14.0318 6.92083L14.0861 6.93555V2.7643L14.0115 2.74222C12.5585 2.23385 10.8689 1.74478 7.73647 1.74478C2.33555 1.74478 0.421875 4.89117 0.421875 7.58655C0.421875 9.14033 1.08785 12.7971 7.27328 13.2189C7.79763 13.2512 9.18923 13.3314 9.18923 14.6357C9.18923 15.7126 8.04991 16.3476 6.1337 16.3476C4.03374 16.3476 1.99672 15.812 0.759433 15.3042V19.6003C2.61168 20.0858 4.69972 20.3285 7.14688 20.3285C12.4278 20.3285 14.7929 17.3516 14.7929 14.4012C14.7929 11.0558 12.1463 8.88221 7.70601 8.58476ZM39.3692 20.1305H44.1612V6.68301H39.3692V20.1305ZM53.1844 2.60212V20.1305H57.9772V1.74478L53.1844 2.60212ZM46.1911 2.60212L50.9794 1.74478V20.1305H46.1911V2.60212Z" fill="#636872"/>
</svg>
