<svg width="41" height="41" viewBox="0 0 41 41" fill="none" xmlns="http://www.w3.org/2000/svg">
<path fill-rule="evenodd" clip-rule="evenodd" d="M1.76956e-05 32.1167V8.88335C-0.00231431 7.71612 0.225868 6.55992 0.671471 5.48109C1.11707 4.40226 1.77133 3.42204 2.59668 2.59668C3.42204 1.77133 4.40226 1.11707 5.48109 0.671471C6.55992 0.225868 7.71612 -0.00231431 8.88335 1.76956e-05H32.1167C33.2839 -0.00231431 34.4401 0.225868 35.5189 0.671471C36.5978 1.11707 37.578 1.77133 38.4033 2.59668C39.2287 3.42204 39.883 4.40226 40.3286 5.48109C40.7742 6.55992 41.0023 7.71612 41 8.88335V32.1167C41.0023 33.2839 40.7742 34.4401 40.3286 35.5189C39.883 36.5978 39.2287 37.578 38.4033 38.4033C37.578 39.2287 36.5978 39.883 35.5189 40.3286C34.4401 40.7742 33.2839 41.0023 32.1167 41H8.88335C6.52768 40.9989 4.2688 40.0627 2.60309 38.3969C0.937373 36.7312 0.00110418 34.4724 1.76956e-05 32.1167Z" fill="url(#paint0_linear_765_15772)"/>
<path fill-rule="evenodd" clip-rule="evenodd" d="M1.76956e-05 32.1167V8.88335C-0.00231431 7.71612 0.225868 6.55992 0.671471 5.48109C1.11707 4.40226 1.77133 3.42204 2.59668 2.59668C3.42204 1.77133 4.40226 1.11707 5.48109 0.671471C6.55992 0.225868 7.71612 -0.00231431 8.88335 1.76956e-05H32.1167C33.2839 -0.00231431 34.4401 0.225868 35.5189 0.671471C36.5978 1.11707 37.578 1.77133 38.4033 2.59668C39.2287 3.42204 39.883 4.40226 40.3286 5.48109C40.7742 6.55992 41.0023 7.71612 41 8.88335V32.1167C41.0023 33.2839 40.7742 34.4401 40.3286 35.5189C39.883 36.5978 39.2287 37.578 38.4033 38.4033C37.578 39.2287 36.5978 39.883 35.5189 40.3286C34.4401 40.7742 33.2839 41.0023 32.1167 41H8.88335C6.52768 40.9989 4.2688 40.0627 2.60309 38.3969C0.937373 36.7312 0.00110418 34.4724 1.76956e-05 32.1167Z" fill="url(#paint1_linear_765_15772)"/>
<path fill-rule="evenodd" clip-rule="evenodd" d="M1.76956e-05 32.1167V8.88335C-0.00231431 7.71612 0.225868 6.55992 0.671471 5.48109C1.11707 4.40226 1.77133 3.42204 2.59668 2.59668C3.42204 1.77133 4.40226 1.11707 5.48109 0.671471C6.55992 0.225868 7.71612 -0.00231431 8.88335 1.76956e-05H32.1167C33.2839 -0.00231431 34.4401 0.225868 35.5189 0.671471C36.5978 1.11707 37.578 1.77133 38.4033 2.59668C39.2287 3.42204 39.883 4.40226 40.3286 5.48109C40.7742 6.55992 41.0023 7.71612 41 8.88335V32.1167C41.0023 33.2839 40.7742 34.4401 40.3286 35.5189C39.883 36.5978 39.2287 37.578 38.4033 38.4033C37.578 39.2287 36.5978 39.883 35.5189 40.3286C34.4401 40.7742 33.2839 41.0023 32.1167 41H8.88335C6.52768 40.9989 4.2688 40.0627 2.60309 38.3969C0.937373 36.7312 0.00110418 34.4724 1.76956e-05 32.1167Z" fill="url(#paint2_linear_765_15772)"/>
<defs>
<linearGradient id="paint0_linear_765_15772" x1="20.5" y1="1.76956e-05" x2="20.5" y2="41.0004" gradientUnits="userSpaceOnUse">
<stop stop-color="#1D6FF2"/>
<stop offset="1" stop-color="#1AC8FC"/>
</linearGradient>
<linearGradient id="paint1_linear_765_15772" x1="20.6946" y1="-1.50176" x2="19.992" y2="47.8735" gradientUnits="userSpaceOnUse">
<stop stop-color="#ADF1FF"/>
<stop offset="1" stop-color="#7D78FF"/>
</linearGradient>
<linearGradient id="paint2_linear_765_15772" x1="20.4994" y1="6.20455e-05" x2="20.4994" y2="40.9694" gradientUnits="userSpaceOnUse">
<stop stop-color="#0CC8EF"/>
<stop offset="1" stop-color="#047AFA"/>
</linearGradient>
</defs>
</svg>
