<svg width="41" height="41" viewBox="0 0 41 41" fill="none" xmlns="http://www.w3.org/2000/svg">
<g clip-path="url(#clip0_765_15771)">
<path fill-rule="evenodd" clip-rule="evenodd" d="M1.76956e-05 32.1167V8.88335C-0.00231431 7.71612 0.225868 6.55992 0.671471 5.48109C1.11707 4.40226 1.77133 3.42204 2.59668 2.59668C3.42204 1.77133 4.40226 1.11707 5.48109 0.671471C6.55992 0.225868 7.71612 -0.00231431 8.88335 1.76956e-05H32.1167C33.2839 -0.00231431 34.4401 0.225868 35.5189 0.671471C36.5978 1.11707 37.578 1.77133 38.4033 2.59668C39.2287 3.42204 39.883 4.40226 40.3286 5.48109C40.7742 6.55992 41.0023 7.71612 41 8.88335V32.1167C41.0023 33.2839 40.7742 34.4401 40.3286 35.5189C39.883 36.5978 39.2287 37.578 38.4033 38.4033C37.578 39.2287 36.5978 39.883 35.5189 40.3286C34.4401 40.7742 33.2839 41.0023 32.1167 41H8.88335C6.52768 40.9989 4.2688 40.0627 2.60309 38.3969C0.937373 36.7312 0.00110418 34.4724 1.76956e-05 32.1167V32.1167Z" fill="url(#paint0_linear_765_15771)"/>
<path fill-rule="evenodd" clip-rule="evenodd" d="M1.76956e-05 32.1167V8.88335C-0.00231431 7.71612 0.225868 6.55992 0.671471 5.48109C1.11707 4.40226 1.77133 3.42204 2.59668 2.59668C3.42204 1.77133 4.40226 1.11707 5.48109 0.671471C6.55992 0.225868 7.71612 -0.00231431 8.88335 1.76956e-05H32.1167C33.2839 -0.00231431 34.4401 0.225868 35.5189 0.671471C36.5978 1.11707 37.578 1.77133 38.4033 2.59668C39.2287 3.42204 39.883 4.40226 40.3286 5.48109C40.7742 6.55992 41.0023 7.71612 41 8.88335V32.1167C41.0023 33.2839 40.7742 34.4401 40.3286 35.5189C39.883 36.5978 39.2287 37.578 38.4033 38.4033C37.578 39.2287 36.5978 39.883 35.5189 40.3286C34.4401 40.7742 33.2839 41.0023 32.1167 41H8.88335C6.52768 40.9989 4.2688 40.0627 2.60309 38.3969C0.937373 36.7312 0.00110418 34.4724 1.76956e-05 32.1167V32.1167Z" fill="url(#paint1_linear_765_15771)"/>
<path fill-rule="evenodd" clip-rule="evenodd" d="M1.76956e-05 32.1167V8.88335C-0.00231431 7.71612 0.225868 6.55992 0.671471 5.48109C1.11707 4.40226 1.77133 3.42204 2.59668 2.59668C3.42204 1.77133 4.40226 1.11707 5.48109 0.671471C6.55992 0.225868 7.71612 -0.00231431 8.88335 1.76956e-05H32.1167C33.2839 -0.00231431 34.4401 0.225868 35.5189 0.671471C36.5978 1.11707 37.578 1.77133 38.4033 2.59668C39.2287 3.42204 39.883 4.40226 40.3286 5.48109C40.7742 6.55992 41.0023 7.71612 41 8.88335V32.1167C41.0023 33.2839 40.7742 34.4401 40.3286 35.5189C39.883 36.5978 39.2287 37.578 38.4033 38.4033C37.578 39.2287 36.5978 39.883 35.5189 40.3286C34.4401 40.7742 33.2839 41.0023 32.1167 41H8.88335C6.52768 40.9989 4.2688 40.0627 2.60309 38.3969C0.937373 36.7312 0.00110418 34.4724 1.76956e-05 32.1167V32.1167Z" fill="url(#paint2_linear_765_15771)"/>
<path fill-rule="evenodd" clip-rule="evenodd" d="M33.8255 29.4521C33.513 29.6299 33.16 29.7241 32.8005 29.7254H8.20047C7.84038 29.7286 7.48615 29.6341 7.17547 29.4521L15.3755 21.2521L17.3913 23.2679C17.8026 23.6638 18.2907 23.9712 18.8255 24.171C19.3603 24.3708 19.9303 24.4588 20.5005 24.4296C21.0703 24.4557 21.6395 24.3662 22.1738 24.1666C22.7081 23.9669 23.1966 23.6612 23.6096 23.2679L25.6255 21.2521L33.8255 29.4521ZM34.543 28.7004L26.343 20.5004L34.543 12.3004C34.7208 12.6128 34.815 12.9659 34.8163 13.3254V27.6754C34.8482 28.0385 34.7514 28.4013 34.543 28.7004ZM6.4238 28.7004C6.24594 28.388 6.15179 28.0349 6.15047 27.6754V13.3254C6.14726 12.9653 6.24172 12.6111 6.4238 12.3004L14.6238 20.5004L6.4238 28.7004ZM33.8255 11.5487L22.858 22.5162C22.5457 22.8163 22.1757 23.0498 21.7705 23.2025C21.3652 23.3552 20.9331 23.424 20.5005 23.4046C20.0678 23.424 19.6357 23.3552 19.2305 23.2025C18.8252 23.0498 18.4552 22.8163 18.143 22.5162L7.17547 11.5487C7.48789 11.3709 7.84096 11.2767 8.20047 11.2754H32.8005C33.16 11.2767 33.513 11.3709 33.8255 11.5487Z" fill="#F6F8FA"/>
</g>
<defs>
<linearGradient id="paint0_linear_765_15771" x1="20.5" y1="1.76956e-05" x2="20.5" y2="41.0004" gradientUnits="userSpaceOnUse">
<stop stop-color="#1D6FF2"/>
<stop offset="1" stop-color="#1AC8FC"/>
</linearGradient>
<linearGradient id="paint1_linear_765_15771" x1="20.6946" y1="-1.50176" x2="19.992" y2="47.8735" gradientUnits="userSpaceOnUse">
<stop stop-color="#ADF1FF"/>
<stop offset="1" stop-color="#7D78FF"/>
</linearGradient>
<linearGradient id="paint2_linear_765_15771" x1="20.4994" y1="6.20455e-05" x2="20.4994" y2="40.9694" gradientUnits="userSpaceOnUse">
<stop stop-color="#0CC8EF"/>
<stop offset="1" stop-color="#047AFA"/>
</linearGradient>
<clipPath id="clip0_765_15771">
<rect width="41" height="41" fill="white"/>
</clipPath>
</defs>
</svg>
