<svg width="40" height="40" viewBox="0 0 40 40" fill="none" xmlns="http://www.w3.org/2000/svg">
<g clip-path="url(#clip0_765_15824)">
<path d="M20 40C31.0457 40 40 31.0457 40 20C40 8.95431 31.0457 0 20 0C8.95431 0 0 8.95431 0 20C0 31.0457 8.95431 40 20 40Z" fill="url(#paint0_linear_765_15824)"/>
<path d="M16.3327 29.1674C15.6848 29.1674 15.7949 28.9227 15.5714 28.3058L13.666 22.035L28.3327 13.334" fill="#C8DAEA"/>
<path d="M16.334 29.1672C16.834 29.1672 17.0549 28.9386 17.334 28.6672L20.0006 26.0742L16.6743 24.0684" fill="#A9C9DD"/>
<path d="M16.6726 24.0676L24.7326 30.0224C25.6523 30.5299 26.3161 30.2671 26.5452 29.1685L29.8261 13.708C30.162 12.3613 29.3127 11.7505 28.4328 12.1499L9.16782 19.5784C7.8528 20.1059 7.86047 20.8395 8.92812 21.1664L13.872 22.7095L25.3175 15.4887C25.8578 15.161 26.3537 15.3372 25.9467 15.6984" fill="url(#paint1_linear_765_15824)"/>
</g>
<defs>
<linearGradient id="paint0_linear_765_15824" x1="26.668" y1="6.668" x2="16.668" y2="30" gradientUnits="userSpaceOnUse">
<stop stop-color="#31AEFF"/>
<stop offset="1" stop-color="#1E80FF"/>
</linearGradient>
<linearGradient id="paint1_linear_765_15824" x1="22.5003" y1="19.9993" x2="25.6303" y2="27.1213" gradientUnits="userSpaceOnUse">
<stop stop-color="#EFF7FC"/>
<stop offset="1" stop-color="white"/>
</linearGradient>
<clipPath id="clip0_765_15824">
<rect width="40" height="40" fill="white"/>
</clipPath>
</defs>
</svg>
