<svg width="55" height="19" viewBox="0 0 55 19" fill="none" xmlns="http://www.w3.org/2000/svg">
<path d="M23.8566 17.8541H19.5034L22.2265 1.20418H26.5798L23.8566 17.8541ZM39.6391 1.61126C38.7797 1.27374 37.4187 0.902344 35.7335 0.902344C31.4341 0.902344 28.4069 3.16943 28.3879 6.41036C28.3524 8.80205 30.5557 10.1304 32.2035 10.9276C33.8881 11.7424 34.4606 12.2741 34.4606 13.0005C34.4435 14.1159 33.0997 14.6301 31.8463 14.6301C30.108 14.6301 29.1764 14.3651 27.761 13.7445L27.1878 13.4784L26.5786 17.2165C27.6001 17.6762 29.481 18.0845 31.4341 18.1021C36.002 18.1021 38.976 15.8701 39.0115 12.4162C39.0286 10.5205 37.8652 9.0682 35.3573 7.88143C33.8343 7.11928 32.9021 6.60574 32.9021 5.82666C32.9198 5.11774 33.6911 4.39189 35.4099 4.39189C36.8247 4.3568 37.8646 4.69311 38.6518 5.02943L39.0463 5.20666L39.6385 1.61126H39.6391ZM45.4249 11.9559C45.7833 10.999 47.1633 7.29711 47.1633 7.29711C47.1449 7.3328 47.5211 6.32326 47.7358 5.70266L48.0404 7.13743C48.0404 7.13743 48.8649 11.1236 49.0436 11.9553H45.4249V11.9559ZM50.7991 1.20357H47.4318C46.3932 1.20357 45.6041 1.5042 45.1564 2.58511L38.6891 17.8534H43.2577C43.2577 17.8534 44.0101 15.7981 44.171 15.3553H49.7611C49.8858 15.9402 50.2804 17.8534 50.2804 17.8534H54.3113L50.7991 1.20418V1.20357ZM5.14368 3.36904C3.80412 2.59479 2.27677 1.97237 0.568359 1.53989L0.639925 1.20357H7.64421C8.59414 1.23866 9.36424 1.53928 9.61502 2.60326L11.1369 10.2532L11.1375 10.2544L11.6036 12.5571L15.8669 1.20357H20.4704L13.6276 17.8365H9.02353L5.14368 3.36904Z" fill="#636872"/>
</svg>
