<svg width="40" height="40" viewBox="0 0 40 40" fill="none" xmlns="http://www.w3.org/2000/svg">
<g clip-path="url(#clip0_765_15812)">
<path d="M39.9987 29.8896C39.9987 30.1086 39.992 30.5836 39.9788 30.9505C39.9466 31.8483 39.8755 33.0068 39.7678 33.5346C39.6061 34.3278 39.3619 35.0764 39.0435 35.6996C38.6669 36.4368 38.1864 37.0971 37.6154 37.667C37.0458 38.2357 36.3861 38.7143 35.65 39.0895C35.0236 39.4087 34.2702 39.653 33.4725 39.814C32.9499 39.9195 31.8001 39.9893 30.9081 40.021C30.5408 40.0342 30.0658 40.0408 29.8476 40.0408L10.1511 40.0376C9.93211 40.0376 9.45719 40.0309 9.09028 40.0177C8.1925 39.9855 7.03405 39.9144 6.5062 39.8068C5.71299 39.645 4.96428 39.4009 4.34115 39.0825C3.60396 38.7058 2.94369 38.2253 2.3738 37.6544C1.80505 37.0847 1.32645 36.425 0.951332 35.689C0.632034 35.0625 0.387736 34.3092 0.226681 33.5115C0.121211 32.9889 0.0514065 31.8391 0.0196485 30.9471C0.00660159 30.5798 0 30.1048 0 29.8866L0.00312501 10.1902C0.00312501 9.97117 0.00980473 9.49621 0.0229689 9.1293C0.0551956 8.23152 0.126329 7.07309 0.233946 6.54527C0.395705 5.75207 0.639847 5.00336 0.958246 4.3802C1.33493 3.64305 1.81544 2.98273 2.38634 2.41285C2.95603 1.84414 3.61572 1.36551 4.35178 0.990351C4.97823 0.671133 5.73163 0.426836 6.52933 0.265781C7.05187 0.160273 8.20168 0.0904687 9.09371 0.05875C9.46098 0.0456641 9.9361 0.0390625 10.1542 0.0390625L29.8507 0.0422266C30.0697 0.0422266 30.5447 0.0489062 30.9116 0.0620703C31.8094 0.0942969 32.9678 0.16543 33.4957 0.273047C34.2888 0.434805 35.0375 0.678945 35.6607 0.997344C36.3979 1.37402 37.0581 1.85453 37.628 2.42543C38.1967 2.99512 38.6754 3.65477 39.0505 4.39086C39.3698 5.0173 39.6141 5.77066 39.7751 6.56836C39.8806 7.09094 39.9504 8.2407 39.9822 9.13277C39.9953 9.50004 40.0019 9.97512 40.0019 10.1933L39.9987 29.8896Z" fill="url(#paint0_linear_765_15812)"/>
<path d="M30.598 9.50227C27.8898 6.79184 24.2882 5.2984 20.4509 5.29688C12.5446 5.29688 6.10977 11.7292 6.1066 19.6356C6.10559 22.1629 6.7661 24.6299 8.02133 26.8045L5.98633 34.2353L13.5905 32.2412C15.6856 33.3836 18.0445 33.9856 20.4452 33.9866H20.4511C28.3567 33.9866 34.7921 27.5535 34.7953 19.647C34.7969 15.8155 33.3062 12.2127 30.598 9.50227ZM20.4511 31.5648H20.4463C18.3069 31.564 16.2086 30.9895 14.3781 29.9035L13.9427 29.6452L9.43032 30.8286L10.6348 26.4304L10.3512 25.9795C9.15778 24.0819 8.52747 21.8885 8.52841 19.6366C8.53098 13.0651 13.8794 7.71875 20.4557 7.71875C23.6402 7.71996 26.6337 8.96137 28.8846 11.2141C31.1356 13.4669 32.3746 16.4615 32.3734 19.6461C32.3708 26.2181 27.0224 31.5648 20.4511 31.5648ZM26.9908 22.6384C26.6323 22.4591 24.8703 21.5923 24.5417 21.4727C24.2132 21.3531 23.9743 21.2933 23.7353 21.6521C23.4964 22.0107 22.8095 22.8178 22.6004 23.0569C22.3913 23.2961 22.1822 23.326 21.8238 23.1466C21.4654 22.9673 20.3106 22.5889 18.9416 21.3682C17.8761 20.4183 17.1568 19.2448 16.9477 18.8861C16.7386 18.5274 16.9255 18.3335 17.1049 18.1548C17.2661 17.9943 17.4633 17.7364 17.6425 17.5271C17.8217 17.318 17.8814 17.1684 18.0009 16.9293C18.1204 16.6902 18.0606 16.4809 17.971 16.3016C17.8814 16.1223 17.1646 14.3587 16.8659 13.6413C16.575 12.9426 16.2795 13.0371 16.0595 13.0262C15.8507 13.0158 15.6115 13.0136 15.3726 13.0136C15.1337 13.0136 14.7453 13.1032 14.4168 13.462C14.0883 13.8207 13.1624 14.6875 13.1624 16.4511C13.1624 18.2146 14.4467 19.9184 14.6259 20.1575C14.8051 20.3966 17.1532 24.0157 20.7486 25.5677C21.6038 25.9369 22.2713 26.1573 22.7919 26.3225C23.6505 26.5951 24.4318 26.5567 25.0494 26.4645C25.738 26.3616 27.1699 25.5977 27.4687 24.7607C27.7673 23.9237 27.7673 23.2064 27.6777 23.0569C27.5881 22.9075 27.3492 22.8178 26.9908 22.6384Z" fill="#F6F8FA"/>
</g>
<defs>
<linearGradient id="paint0_linear_765_15812" x1="20.0009" y1="0.0390625" x2="20.0009" y2="40.0408" gradientUnits="userSpaceOnUse">
<stop stop-color="#61FD7D"/>
<stop offset="1" stop-color="#2BB826"/>
</linearGradient>
<clipPath id="clip0_765_15812">
<rect width="40" height="40" fill="white"/>
</clipPath>
</defs>
</svg>
